<svg height="512pt" viewBox="-1 0 512 512.00099" width="512pt" xmlns="http://www.w3.org/2000/svg"><path d="m502.695312 337.921875c4.199219 0 7.605469-3.40625 7.605469-7.605469v-183.496094c0-10.402343-4.046875-20.191406-11.410156-27.585937-7.375-7.34375-17.164063-11.390625-27.566406-11.390625h-86.519531v-100.242188c0-4.199218-3.402344-7.601562-7.601563-7.601562h-185.695313c-4.199218 0-7.601562 3.402344-7.601562 7.601562v107.816407c0 4.199219 3.402344 7.601562 7.601562 7.601562 4.199219 0 7.601563-3.402343 7.601563-7.601562v-100.210938h170.492187v92.636719h-83.964843c-.003907 0-.011719.003906-.019531.003906-10.394532.003906-20.179688 4.046875-27.566407 11.410156-3.9375 3.953126-6.972656 8.730469-8.917969 13.914063-1.71875-.25-3.476562-.382813-5.261718-.382813h-166.320313c-4.199219 0-7.601562 3.402344-7.601562 7.601563s3.402343 7.601563 7.601562 7.601563h166.320313c11.761718 0 21.328125 9.566406 21.328125 21.328124v306.148438c0 11.757812-9.566407 21.328125-21.328125 21.328125h-207.335938c-11.761718 0-21.328125-9.566406-21.328125-21.328125v-306.148438c0-11.757812 9.566407-21.328124 21.328125-21.328124h15.671875c4.199219 0 7.601563-3.402344 7.601563-7.601563s-3.402344-7.601563-7.601563-7.601563h-15.671875c-20.148437 0-36.535156 16.386719-36.535156 36.53125v306.148438c0 20.144531 16.386719 36.53125 36.535156 36.53125h207.335938c20.144531 0 36.535156-16.386719 36.535156-36.53125v-289.671875h29.003906v287.449219c0 4.199218 3.402344 7.601562 7.601563 7.601562h185.6875c4.199219 0 7.601562-3.402344 7.601562-7.601562v-117.585938c0-4.199218-3.402343-7.601562-7.601562-7.601562s-7.605469 3.402344-7.605469 7.601562v109.980469h-170.480469v-318.820313c0-8.703124-2.832031-16.976562-8.066406-23.769531h154.777344c6.351562 0 12.332031 2.472657 16.8125 6.9375 4.488281 4.5 6.957031 10.480469 6.957031 16.832031v183.496094c0 4.199219 3.40625 7.605469 7.601562 7.605469zm-200.25-207.929687c4.492188 4.5 6.964844 10.472656 6.964844 16.828124v23.773438h-29.007812v-1.273438c0-12.972656-6.804688-24.382812-17.023438-30.863281 1.171875-3.144531 3-6.015625 5.425782-8.449219 4.5-4.488281 10.480468-6.957031 16.832031-6.957031h.019531c6.339844.003907 12.308594 2.476563 16.789062 6.941407zm0 0"/><path d="m249.992188 170.800781c0-4.199219-3.402344-7.601562-7.601563-7.601562h-204.378906c-4.195313 0-7.601563 3.402343-7.601563 7.601562v75.199219c0 4.199219 3.40625 7.605469 7.601563 7.605469h204.378906c4.199219 0 7.601563-3.40625 7.601563-7.605469zm-15.203126 67.597657h-189.171874v-59.996094h189.171874zm0 0"/><path d="m242.390625 270.449219h-204.378906c-4.195313 0-7.601563 3.402343-7.601563 7.601562v196.757813c0 4.199218 3.40625 7.605468 7.601563 7.605468h204.378906c4.199219 0 7.601563-3.40625 7.601563-7.605468v-196.757813c0-4.199219-3.402344-7.601562-7.601563-7.601562zm-7.601563 67.242187h-51.5v-52.039062h51.5zm0 62.273438h-51.5v-47.070313h51.5zm-189.171874-47.070313h51.496093v47.070313h-51.496093zm66.699218 0h55.769532v47.070313h-55.769532zm55.769532-67.242187v52.039062h-55.769532v-52.039062zm-70.972657 0v52.039062h-51.496093v-52.039062zm-51.496093 129.519531h51.496093v52.035156h-51.496093zm66.699218 52.035156v-52.035156h55.769532v52.035156zm70.976563 0v-52.035156h51.496093v52.035156zm0 0"/><path d="m366.957031 146.335938h-20.273437c-4.199219 0-7.605469 3.402343-7.605469 7.601562s3.40625 7.601562 7.605469 7.601562h20.273437c4.195313 0 7.601563-3.402343 7.601563-7.601562s-3.40625-7.601562-7.601563-7.601562zm0 0"/><path d="m473.390625 146.335938h-80.078125c-4.199219 0-7.605469 3.402343-7.605469 7.601562s3.40625 7.601562 7.605469 7.601562h80.078125c4.199219 0 7.601563-3.402343 7.601563-7.601562s-3.402344-7.601562-7.601563-7.601562zm0 0"/><path d="m366.957031 317.644531h-20.273437c-4.199219 0-7.605469 3.40625-7.605469 7.605469s3.40625 7.601562 7.605469 7.601562h20.273437c4.195313 0 7.601563-3.402343 7.601563-7.601562s-3.40625-7.605469-7.601563-7.605469zm0 0"/><path d="m480.992188 325.25c0-4.199219-3.402344-7.605469-7.601563-7.605469h-80.078125c-4.199219 0-7.605469 3.40625-7.605469 7.605469s3.40625 7.601562 7.605469 7.601562h80.078125c4.199219 0 7.601563-3.402343 7.601563-7.601562zm0 0"/><path d="m366.957031 274.820312h-20.273437c-4.199219 0-7.605469 3.402344-7.605469 7.601563s3.40625 7.601563 7.605469 7.601563h20.273437c4.195313 0 7.601563-3.402344 7.601563-7.601563s-3.40625-7.601563-7.601563-7.601563zm0 0"/><path d="m473.390625 274.820312h-80.078125c-4.199219 0-7.605469 3.402344-7.605469 7.601563s3.40625 7.601563 7.605469 7.601563h80.078125c4.199219 0 7.601563-3.402344 7.601563-7.601563s-3.402344-7.601563-7.601563-7.601563zm0 0"/><path d="m366.957031 231.992188h-20.273437c-4.199219 0-7.605469 3.402343-7.605469 7.601562s3.40625 7.601562 7.605469 7.601562h20.273437c4.195313 0 7.601563-3.402343 7.601563-7.601562s-3.40625-7.601562-7.601563-7.601562zm0 0"/><path d="m473.390625 231.992188h-80.078125c-4.199219 0-7.605469 3.402343-7.605469 7.601562s3.40625 7.601562 7.605469 7.601562h80.078125c4.199219 0 7.601563-3.402343 7.601563-7.601562s-3.402344-7.601562-7.601563-7.601562zm0 0"/><path d="m366.957031 189.164062h-20.273437c-4.199219 0-7.605469 3.402344-7.605469 7.601563s3.40625 7.601563 7.605469 7.601563h20.273437c4.195313 0 7.601563-3.402344 7.601563-7.601563s-3.40625-7.601563-7.601563-7.601563zm0 0"/><path d="m473.390625 189.164062h-80.078125c-4.199219 0-7.605469 3.402344-7.605469 7.601563s3.40625 7.601563 7.605469 7.601563h80.078125c4.199219 0 7.601563-3.402344 7.601563-7.601563s-3.402344-7.601563-7.601563-7.601563zm0 0"/><path d="m220.984375 50.65625h20.273437c4.199219 0 7.605469-3.40625 7.605469-7.605469s-3.40625-7.601562-7.605469-7.601562h-20.273437c-4.199219 0-7.601563 3.402343-7.601563 7.601562s3.402344 7.605469 7.601563 7.605469zm0 0"/><path d="m267.613281 50.65625h80.082031c4.199219 0 7.601563-3.40625 7.601563-7.605469s-3.402344-7.601562-7.601563-7.601562h-80.082031c-4.195312 0-7.601562 3.402343-7.601562 7.601562s3.40625 7.605469 7.601562 7.605469zm0 0"/><path d="m220.984375 93.484375h20.273437c4.199219 0 7.605469-3.40625 7.605469-7.605469 0-4.199218-3.40625-7.601562-7.605469-7.601562h-20.273437c-4.199219 0-7.601563 3.402344-7.601563 7.601562 0 4.199219 3.402344 7.605469 7.601563 7.605469zm0 0"/><path d="m267.613281 93.484375h80.082031c4.199219 0 7.601563-3.40625 7.601563-7.605469 0-4.199218-3.402344-7.601562-7.601563-7.601562h-80.082031c-4.195312 0-7.601562 3.402344-7.601562 7.601562 0 4.199219 3.40625 7.605469 7.601562 7.605469zm0 0"/><path d="m410.082031 445.25c.757813.714844 1.855469 1.125 3.015625 1.125h.183594c2.875 0 5.21875-2.34375 5.21875-5.21875v-1.105469c11.863281-2.535156 18.660156-10.742187 18.660156-22.542969 0-13.359374-8.949218-18.699218-18.660156-22.449218v-18.726563c3.125.492188 5.222656 1.554688 6.917969 2.414063 1.460937.738281 2.617187 1.324218 3.90625 1.324218 4.128906 0 5.914062-5.046874 5.914062-7.621093 0-5.492188-8.601562-8.039063-16.738281-8.597657v-1.132812c0-2.878906-2.34375-5.21875-5.21875-5.21875s-5.21875 2.339844-5.21875 5.21875v1.464844c-12.433594 2.078125-19.5625 9.675781-19.5625 20.863281 0 13.753906 11.253906 18.078125 19.5625 21.207031v21.015625c-4.582031-.871093-7.5625-3.183593-9.96875-5.050781-1.960938-1.523438-3.507812-2.726562-5.285156-2.726562-3.554688 0-6.230469 4.6875-6.230469 7.730468 0 5.738282 8.8125 12.621094 21.484375 13.410156v.519532c0 1.613281.742188 3.113281 2.019531 4.097656zm-2.019531-68.296875v14.132813c-3.175781-1.460938-6.03125-3.410157-6.03125-7.421876 0-3.222656 2.085938-5.539062 6.03125-6.710937zm10.4375 49.625v-15.890625c3.539062 2.089844 5.125 4.640625 5.125 8.207031 0 3.59375-1.769531 6.242188-5.125 7.683594zm0 0"/><path d="m202.234375 229.457031h16.21875c4.199219 0 7.601563-3.40625 7.601563-7.601562 0-4.199219-3.402344-7.605469-7.601563-7.605469h-16.21875c-4.199219 0-7.601563 3.40625-7.601563 7.605469 0 4.195312 3.402344 7.601562 7.601563 7.601562zm0 0"/></svg>