<svg id="Layer_1" height="512" viewBox="0 0 512 512" width="512" xmlns="http://www.w3.org/2000/svg" data-name="Layer 1"><path d="m466 180h31v12h-31z"/><path d="m447.038 110.188h35.528v12h-35.528z" transform="matrix(.881 -.472 .472 .881 .219 233.248)"/><path d="m458.802 238.236h12v35.528h-12z" transform="matrix(.472 -.881 .881 .472 19.654 544.825)"/><path d="m171.758 495.765c86.568 0 156.816-70.429 156.816-157 0-61.856-36.574-117.452-93.574-142.937v-58.388c0-3.314-2.326-6.44-5.64-6.44h-51.36v-41.655a61 61 0 1 1 122 0v31.877a71.435 71.435 0 0 0 71.408 71.778h31.592v-12h-31.592a59.434 59.434 0 0 1 -59.408-59.778v-31.877a73 73 0 1 0 -146 0v41.655h-51.844a6.525 6.525 0 0 0 -6.156 6.44v57.93a156.75 156.75 0 0 0 -93.316 143.4c0 86.566 70.506 156.995 157.074 156.995zm51.242-352.765v47.8a147.486 147.486 0 0 0 -52.059-9.024 154.965 154.965 0 0 0 -50.941 8.88v-47.656zm-107.146 62.075c18.462-7.5 37.083-11.3 55.344-11.3 20.109 0 38.658 3.772 55.133 11.212l.174.076c54.824 22.7 90.249 75.189 90.249 133.709 0 79.951-65.045 145-145 145s-145-65.045-145-145a145.141 145.141 0 0 1 89.1-133.697z"/><path d="m153 387h12v30h-12z"/><path d="m179 387h12v30h-12z"/><path d="m128.692 380.045-.692 41.4v.091c0 11.61 9.568 21.464 21.177 21.464h45.161c11.609 0 20.662-9.854 20.662-21.463v-41.463c24-14.382 37.83-37.221 37.83-63.16 0-42.736-36.359-77.5-81.17-77.5s-81.251 34.769-81.251 77.505c0 25.704 13.913 48.534 38.283 63.126zm43.066-128.636c38.194 0 69.268 29.385 69.268 65.505 0 22.862-12.457 42.192-34.72 54.43a6.191 6.191 0 0 0 -3.306 5.256v44.935c0 4.992-3.67 9.463-8.662 9.463h-45.161a9.241 9.241 0 0 1 -9.053-9.218l.683-44.986a6.079 6.079 0 0 0 -3.109-5.4c-22.376-12.3-35.209-32.164-35.209-54.455 0-36.119 31.074-65.53 69.269-65.53z"/><path d="m171.758 369.581a15.74 15.74 0 0 0 13.994-22.943l-8.659-16.824a6 6 0 0 0 -10.67 0l-8.66 16.824a15.741 15.741 0 0 0 14 22.943zm-3.325-17.451 3.325-6.46 3.325 6.46a3.74 3.74 0 1 1 -6.65 0z"/><path d="m134.9 339.473a21.054 21.054 0 1 0 -21.054-21.054 21.078 21.078 0 0 0 21.054 21.054zm0-30.107a9.054 9.054 0 1 1 -9.054 9.053 9.064 9.064 0 0 1 9.054-9.053z"/><path d="m208.613 339.473a21.054 21.054 0 1 0 -21.054-21.054 21.077 21.077 0 0 0 21.054 21.054zm0-30.107a9.054 9.054 0 1 1 -9.054 9.053 9.063 9.063 0 0 1 9.054-9.053z"/></svg>