<svg height="474pt" viewBox="0 -21 474.45803 474" width="474pt" xmlns="http://www.w3.org/2000/svg"><path d="m234.199219 186.964844c2.675781 2.789062 7.109375 2.882812 9.902343.203125l52.269532-50.144531 54.1875 42.683593c2.527344 1.992188 6.085937 2.003907 8.628906.027344l76.457031-59.414063-2.734375 35.566407c-.296875 3.855469 2.585938 7.222656 6.441406 7.519531.183594.011719.363282.019531.542969.019531 3.65625-.003906 6.695313-2.820312 6.972657-6.464843l3.953124-51.394532c.144532-1.855468-.457031-3.695312-1.675781-5.105468-1.214843-1.410157-2.945312-2.28125-4.800781-2.414063l-55.351562-3.953125c-3.839844-.25-7.164063 2.644531-7.441407 6.484375-.273437 3.84375 2.605469 7.183594 6.441407 7.480469l37.195312 2.65625-70.265625 54.605468-54.671875-43.0625c-2.742188-2.160156-6.65625-1.96875-9.175781.449219l-56.667969 54.359375c-2.789062 2.675782-2.882812 7.105469-.207031 9.898438zm0 0"/><path d="m445.167969 206.722656h-63.222657c-1.796874-.058594-3.539062.628906-4.816406 1.898438-1.277344 1.269531-1.976562 3.007812-1.929687 4.808594v205.292968h-38v-166.527344c0-3.863281-3.09375-7.472656-6.960938-7.472656h-63.21875c-3.863281 0-6.820312 3.609375-6.820312 7.472656v166.527344h-38v-94.332031c.011719-1.8125-.714844-3.546875-2.015625-4.808594-1.300782-1.257812-3.0625-1.929687-4.871094-1.859375h-63.21875c-1.808594-.070312-3.570312.601563-4.871094 1.859375-1.304687 1.257813-2.035156 2.996094-2.023437 4.808594v94.332031h-123.648438c-3.867187 0-7 3.132813-7 7 0 3.867188 3.132813 7 7 7h445.90625c3.867188 0 7-3.132812 7-7 0-3.867187-3.132812-7-7-7h-15.257812v-205.292968c-.019531-1.828126-.777344-3.574219-2.101563-4.835938-1.324218-1.265625-3.101562-1.9375-4.929687-1.871094zm-170.96875 52h49v160h-49zm-115 160v-87h49v87zm230 0v-198h49v198zm0 0"/><path d="m74.199219 118.136719c9.089843-.027344 17.792969-3.683594 24.175781-10.15625 6.382812-6.46875 9.921875-15.222657 9.824219-24.308594v-10.988281c0-18.777344-15.222657-34-34-34-18.777344 0-34 15.222656-34 34v10.988281c-.09375 9.085937 3.441406 17.839844 9.824219 24.308594 6.382812 6.472656 15.085937 10.128906 24.175781 10.15625zm-20-45.453125c-.046875-5.402344 2.0625-10.601563 5.863281-14.441406 3.796875-3.84375 8.972656-6.011719 14.375-6.027344h-.351562c5.390624.019531 10.546874 2.195312 14.324218 6.039062s5.863282 9.039063 5.789063 14.429688v10.988281c0 11.285156-8.714844 20.464844-20 20.464844-11.285157 0-20-9.179688-20-20.464844zm0 0"/><path d="m.199219 239.015625c-.03125 5.808594 2.289062 11.378906 6.4375 15.445313 4.144531 4.097656 9.769531 6.355468 15.601562 6.261718h.007813l.246094.21875c3.1875 0 6.335937-.710937 9.214843-2.078125l3.699219 124.464844c.324219 9.285156 6.105469 17.5 14.734375 20.941406 8.632813 3.4375 18.476563 1.453125 25.097656-5.066406 6.617188 6.535156 16.472657 8.53125 25.109375 5.089844 8.636719-3.4375 14.417969-11.664063 14.730469-20.957031l3.691406-124.226563c2.90625 1.359375 6.078125 2.0625 9.285157 2.058594 12.234374-.015625 22.140624-9.933594 22.144531-22.164063v-84.089844c1.855469-19.464843-12.335938-36.785156-31.789063-38.789062-1.1875-.121094-2.367187-.398438-3.554687-.398438h-14.464844c-1.804687.082032-3.511719.835938-4.789063 2.117188l-20.347656 19.203125-19.539062-19.175781c-1.292969-1.316406-3.039063-2.085938-4.882813-2.148438h-15.347656c-19.671875.1875-35.5117188 16.199219-35.484375 35.867188 0 1.066406.199219 2.257812.199219 3.324218zm91.445312 152.949219c-5.207031-.007813-9.429687-4.21875-9.445312-9.425782v-124.089843c0-3.867188-3.132813-7-7-7-3.863281 0-7 3.132812-7 7v124.085937c.007812 5.15625-4.128907 9.355469-9.28125 9.425782-5.152344.070312-9.402344-4.019532-9.53125-9.171876l-4.265625-144.066406h60.238281l-4.285156 144.023438c-.160157 5.105468-4.320313 9.171875-9.429688 9.21875zm-71.390625-255.714844c4.007813-4.113281 9.484375-6.460938 15.226563-6.527344h12.507812l22.300781 21.910156c.046876.042969.09375.191407.140626.230469.09375.089844.191406.230469.289062.3125.082031.070313.167969.160157.25.226563.101562.074218.207031.164062.3125.234375.089844.058593.179688.125.269531.179687.089844.054688.210938.128906.320313.1875.109375.054688.191406.097656.292968.148438.097657.046875.210938.097656.320313.144531.109375.042969.207031.082031.3125.117187.105469.039063.214844.078126.320313.109376.109374.035156.21875.066406.328124.09375.113282.027343.214844.050781.324219.074218.109375.019532.222657.039063.335938.058594.113281.015625.21875.03125.332031.042969.109375.011719.222656.019531.332031.027343.113281.003907.226563.007813.339844.011719.113281 0 .21875 0 .328125-.007812.109375-.003907.230469-.011719.347656-.019531.113282-.011719.210938-.023438.316406-.035157.109376-.015625.234376-.035156.351563-.054687.117187-.023438.207031-.042969.3125-.066406.101563-.027344.230469-.058594.34375-.089844.117187-.035156.199219-.0625.300781-.101563.101563-.035156.222656-.078125.335938-.121093.109375-.046876.199218-.082032.300781-.128907.097656-.046875.210937-.101562.3125-.152343.105469-.050782.199219-.109376.300781-.164063.101563-.058594.199219-.117187.300782-.179687.097656-.066407.191406-.132813.289062-.203126.097656-.066406.1875-.136718.277344-.210937.09375-.074219.183594-.148437.273437-.230469.050781-.042968.101563-.304687.152344-.351562l23.207031-22h11.695313c.71875 0 1.449219.257812 2.167969.332031 11.839843 1.269531 20.433593 11.863281 19.234374 23.710937-.023437.234376-.058593.582032-.058593.816407v84.421875c0 4.417968-3.582031 8-8 8s-8-3.582032-8-8v-18.375l.085937-2.890625c.011719-.441407-.085937-.875-.085937-1.300781v-33.933594c0-3.867188-3.132813-7-7-7-3.867188 0-7 3.132812-7 7v37.898437l-.421875 4.328125h-61.074219l-.320313-7.546875c-.011718-.296875-.183593-.457031-.183593-.746093v-33.933594c0-3.867188-3.132813-7-7-7-3.863281 0-7 3.132812-7 7v56.089844c.085937 2.132812-.707031 4.207031-2.1875 5.742187-1.484375 1.539063-3.527344 2.402344-5.660157 2.394531h-.113281c-2.117187.085938-4.179687-.695312-5.707031-2.167968-1.511719-1.441407-2.355469-3.449219-2.332031-5.539063v-84.433594c0-.234375-.066407-.472656-.089844-.699219-.074219-.722656-.140625-1.566406-.140625-2.285156-.027344-5.75 2.234375-11.269531 6.285156-15.347656zm0 0"/><path d="m206.929688 102.832031c-5.949219-.007812-10.773438-4.828125-10.78125-10.777343 0-3.867188-3.132813-7-7-7-3.863282 0-7 3.132812-7 7 .015624 11.085937 7.386718 20.816406 18.050781 23.839843v4.828125c0 3.867188 3.136719 7 7 7 3.867187 0 7-3.132812 7-7v-4.980468c11.722656-3.601563 19.050781-15.234376 17.230469-27.363282-1.820313-12.128906-12.238282-21.101562-24.5-21.101562-5.953126 0-10.78125-4.824219-10.78125-10.777344s4.824218-10.777344 10.777343-10.777344 10.78125 4.824219 10.777344 10.777344c0 3.867188 3.136719 7 7 7 3.867187 0 7-3.132812 7-7-.011719-11.265625-7.609375-21.105469-18.503906-23.972656v-3.804688c0-3.867187-3.132813-7-7-7-3.863281 0-7 3.132813-7 7v4.242188c-11.5625 3.792968-18.65625 15.429687-16.734375 27.449218 1.921875 12.019532 12.289062 20.863282 24.464844 20.863282 5.910156.054687 10.671874 4.863281 10.671874 10.777344 0 5.910156-4.761718 10.71875-10.671874 10.777343zm0 0"/><path d="m206.929688 149.160156c41.125 0 74.464843-33.339844 74.464843-74.464844s-33.339843-74.464843-74.464843-74.464843c-41.128907 0-74.46875 33.339843-74.464844 74.464843.046875 41.105469 33.355468 74.417969 74.464844 74.464844zm0-134.929687c33.394531 0 60.464843 27.070312 60.464843 60.464843 0 33.394532-27.070312 60.464844-60.464843 60.464844-33.394532.003906-60.464844-27.070312-60.464844-60.464844.035156-33.378906 27.085937-60.425781 60.464844-60.464843zm0 0"/></svg>